<svg width="252" height="252" viewBox="0 0 252 252" fill="none" xmlns="http://www.w3.org/2000/svg">
<path d="M0 106.312C0 91.098 12.348 78.75 27.5625 78.75H51.1875C54.3204 78.75 57.3249 79.9945 59.5402 82.2098C61.7555 84.4251 63 87.4296 63 90.5625C63 93.6954 61.7555 96.6999 59.5402 98.9152C57.3249 101.13 54.3204 102.375 51.1875 102.375H27.5625C26.5182 102.375 25.5167 102.79 24.7783 103.528C24.0398 104.267 23.625 105.268 23.625 106.312V224.438C23.625 226.611 25.389 228.375 27.5625 228.375H145.688C146.732 228.375 147.733 227.96 148.472 227.222C149.21 226.483 149.625 225.482 149.625 224.438V200.812C149.625 197.68 150.87 194.675 153.085 192.46C155.3 190.245 158.305 189 161.438 189C164.57 189 167.575 190.245 169.79 192.46C172.005 194.675 173.25 197.68 173.25 200.812V224.438C173.25 231.748 170.346 238.758 165.177 243.927C160.008 249.096 152.998 252 145.688 252H27.5625C20.2525 252 13.2418 249.096 8.07287 243.927C2.9039 238.758 0 231.748 0 224.438L0 106.312Z" fill="#CAD1D9"/>
<path d="M78.75 27.5625C78.75 12.348 91.098 0 106.312 0H224.438C239.652 0 252 12.348 252 27.5625V145.688C252 152.998 249.096 160.008 243.927 165.177C238.758 170.346 231.748 173.25 224.438 173.25H106.312C99.0025 173.25 91.9918 170.346 86.8229 165.177C81.6539 160.008 78.75 152.998 78.75 145.688V27.5625ZM106.312 23.625C105.268 23.625 104.267 24.0398 103.528 24.7783C102.79 25.5167 102.375 26.5182 102.375 27.5625V145.688C102.375 147.861 104.139 149.625 106.312 149.625H224.438C225.482 149.625 226.483 149.21 227.222 148.472C227.96 147.733 228.375 146.732 228.375 145.688V27.5625C228.375 26.5182 227.96 25.5167 227.222 24.7783C226.483 24.0398 225.482 23.625 224.438 23.625H106.312Z" fill="#CAD1D9"/>
</svg>
