<svg width="30" height="30" viewBox="0 0 30 30" fill="none" xmlns="http://www.w3.org/2000/svg">
<path d="M16.2575 23.9242C16.4253 24.0914 16.5584 24.29 16.6493 24.5087C16.7401 24.7275 16.7869 24.962 16.7869 25.1988C16.7869 25.4356 16.7401 25.6701 16.6493 25.8888C16.5584 26.1075 16.4253 26.3062 16.2575 26.4733L15.3666 27.364C13.6785 29.0518 11.3889 30 9.00157 30C6.61421 30 4.32462 29.0518 2.6365 27.364C0.948377 25.6762 0 23.3871 0 21.0002C0 18.6133 0.948377 16.3242 2.6365 14.6364L6.25397 11.0212C7.87596 9.39551 10.0583 8.45141 12.3539 8.38227C14.6496 8.31314 16.8848 9.12419 18.6017 10.6493C18.7789 10.8068 18.9234 10.9977 19.0269 11.2111C19.1304 11.4245 19.1908 11.6561 19.2047 11.8928C19.2186 12.1295 19.1858 12.3667 19.1081 12.5907C19.0303 12.8147 18.9092 13.0212 18.7516 13.1984C18.5941 13.3757 18.4032 13.5201 18.1897 13.6236C17.9763 13.727 17.7447 13.7874 17.5079 13.8013C17.2711 13.8153 17.034 13.7824 16.8099 13.7047C16.5858 13.627 16.3793 13.5059 16.202 13.3484C15.1724 12.4342 13.8324 11.9478 12.456 11.9888C11.0797 12.0298 9.77095 12.595 8.7976 13.5688L5.18313 17.1796C4.17041 18.1921 3.60148 19.5653 3.60148 20.9972C3.60148 22.4291 4.17041 23.8024 5.18313 24.8149C6.19584 25.8274 7.56938 26.3962 9.00157 26.3962C10.4338 26.3962 11.8073 25.8274 12.82 24.8149L13.7109 23.9242C13.878 23.7569 14.0765 23.6242 14.295 23.5336C14.5135 23.4431 14.7477 23.3965 14.9842 23.3965C15.2207 23.3965 15.4549 23.4431 15.6734 23.5336C15.8919 23.6242 16.0904 23.7569 16.2575 23.9242ZM27.3679 2.63158C25.6784 0.946396 23.3893 0 21.0028 0C18.6163 0 16.3272 0.946396 14.6377 2.63158L13.7469 3.52228C13.4088 3.86031 13.2188 4.31878 13.2188 4.79684C13.2188 5.27489 13.4088 5.73336 13.7469 6.0714C14.085 6.40943 14.5435 6.59933 15.0217 6.59933C15.4998 6.59933 15.9584 6.40943 16.2965 6.0714L17.1874 5.1807C18.2001 4.16819 19.5736 3.59937 21.0058 3.59937C22.438 3.59937 23.8116 4.16819 24.8243 5.1807C25.837 6.19321 26.4059 7.56647 26.4059 8.99838C26.4059 10.4303 25.837 11.8036 24.8243 12.8161L21.2083 16.4328C20.2341 17.4062 18.9246 17.9706 17.5479 18.0105C16.1712 18.0503 14.8313 17.5627 13.8024 16.6472C13.6251 16.4897 13.4186 16.3686 13.1945 16.2909C12.9704 16.2132 12.7332 16.1803 12.4965 16.1943C12.2597 16.2082 12.028 16.2686 11.8146 16.3721C11.6012 16.4755 11.4103 16.62 11.2527 16.7972C11.0952 16.9744 10.9741 17.1809 10.8963 17.4049C10.8186 17.629 10.7858 17.8661 10.7997 18.1028C10.8136 18.3395 10.874 18.5712 10.9775 18.7845C11.081 18.9979 11.2255 19.1888 11.4027 19.3463C13.1184 20.8711 15.3521 21.6826 17.6467 21.6149C19.9413 21.5472 22.1232 20.6053 23.7459 18.9819L27.3634 15.3667C29.0509 13.6779 29.9992 11.3887 30 9.00156C30.0008 6.61443 29.0542 4.32452 27.3679 2.63458V2.63158Z" fill="#404756"/>
</svg>
