<svg width="1920" height="1080" viewBox="0 0 1920 1080" fill="none" xmlns="http://www.w3.org/2000/svg">
<g clip-path="url(#clip0_58_177)">
<path d="M359.476 327.326L365.654 330.893L363.865 333.99L326.799 312.59L328.588 309.493L334.766 313.059L343.22 305.55L361.753 316.25L359.476 327.326ZM438.165 269.5L400.607 334.552L307.942 281.052L345.5 216L438.165 269.5ZM428.41 272.129L348.101 225.762L317.697 278.423L398.006 324.79L428.41 272.129ZM396.706 319.909L322.574 277.109L349.401 230.643L423.533 273.443L396.706 319.909ZM351.514 248.384L376.224 262.651L378.013 259.553L353.302 245.286L351.514 248.384ZM351.35 277.201L338.994 270.068L337.206 273.166L349.561 280.299L351.35 277.201ZM379.637 285.272L351.838 269.222L350.049 272.32L377.849 288.37L379.637 285.272ZM383.214 279.077L355.415 263.027L353.626 266.125L381.426 282.175L383.214 279.077ZM389.88 274.665L358.992 256.832L357.203 259.929L388.091 277.763L389.88 274.665Z" fill="#E1E7F4"/>
<path d="M42.4837 963.051L48.9641 960.07L50.4591 963.319L11.577 981.208L10.0819 977.959L16.5623 974.977L15.3173 963.738L34.7584 954.793L42.4837 963.051ZM40.7495 865.415L72.1455 933.655L-25.0598 978.378L-56.4558 910.138L40.7495 865.415ZM37.2592 874.896L-46.9854 913.656L-21.5696 968.897L62.675 930.137L37.2592 874.896ZM57.9398 928.379L-19.8245 964.157L-42.2501 915.414L35.5141 879.636L57.9398 928.379ZM-26.5494 923.94L-0.628009 912.014L-2.12305 908.765L-28.0445 920.691L-26.5494 923.94ZM-3.1234 940.724L-16.0841 946.687L-14.5891 949.936L-1.62835 943.973L-3.1234 940.724ZM19.8079 922.298L-9.35367 935.715L-7.85862 938.965L21.303 925.548L19.8079 922.298ZM16.8178 915.799L-12.3438 929.216L-10.8487 932.466L18.3129 919.049L16.8178 915.799ZM17.0679 907.81L-15.3338 922.717L-13.8388 925.967L18.563 911.059L17.0679 907.81Z" fill="#E1E7F4"/>
<path d="M1617.54 777.658L1665.11 799.435C1666.67 800.151 1668.46 800.217 1670.07 799.617C1671.68 799.017 1672.99 797.801 1673.71 796.236L1674.12 795.333C1675.08 793.224 1675.16 790.823 1674.35 788.654C1673.55 786.484 1671.91 784.721 1669.81 783.748L1619.33 760.638C1617.22 759.684 1614.82 759.602 1612.65 760.409C1610.48 761.216 1608.72 762.846 1607.75 764.947L1584.64 815.429C1583.68 817.538 1583.6 819.938 1584.41 822.108C1585.22 824.277 1586.85 826.04 1588.95 827.013L1639.43 850.124C1641.54 851.077 1643.94 851.16 1646.11 850.353C1648.28 849.546 1650.04 847.915 1651.01 845.815L1666.79 811.355" stroke="#E1E7F4" stroke-width="5" stroke-linecap="round" stroke-linejoin="round"/>
<path d="M1643.04 780.412L1637.51 777.88" stroke="#E1E7F4" stroke-width="5" stroke-linecap="round" stroke-linejoin="round"/>
<path d="M1654.1 785.476L1650.42 783.788" stroke="#E1E7F4" stroke-width="5" stroke-linecap="round" stroke-linejoin="round"/>
<path d="M1667.01 791.385L1661.48 788.853" stroke="#E1E7F4" stroke-width="5" stroke-linecap="round" stroke-linejoin="round"/>
<path d="M1610.78 777.818C1611.79 778.284 1613 777.837 1613.46 776.818C1613.93 775.8 1613.48 774.597 1612.46 774.131C1611.45 773.665 1610.24 774.112 1609.78 775.13C1609.31 776.149 1609.76 777.352 1610.78 777.818Z" fill="#E1E7F4"/>
<path d="M1638.83 801.209L1612.71 826.605" stroke="#E1E7F4" stroke-width="5" stroke-linecap="round" stroke-linejoin="round"/>
<path d="M1643.06 812.333L1647.19 823.434L1635.42 827.794" stroke="#E1E7F4" stroke-width="5" stroke-linecap="round" stroke-linejoin="round"/>
<path d="M1615.94 800.053L1604.85 804.164L1609.23 815.936" stroke="#E1E7F4" stroke-width="5" stroke-linecap="round" stroke-linejoin="round"/>
<path d="M244.44 708.674L289.611 682.28C291.096 681.412 292.177 679.989 292.613 678.324C293.05 676.66 292.808 674.89 291.939 673.404L291.438 672.546C290.261 670.553 288.345 669.105 286.106 668.518C283.867 667.93 281.487 668.251 279.483 669.409L231.546 697.42C229.553 698.596 228.105 700.513 227.518 702.752C226.93 704.991 227.251 707.371 228.409 709.375L256.42 757.312C257.596 759.305 259.513 760.753 261.752 761.34C263.991 761.927 266.371 761.607 268.375 760.448L316.312 732.438C318.305 731.261 319.753 729.345 320.34 727.106C320.927 724.867 320.607 722.487 319.448 720.483L300.328 687.76" stroke="#E1E7F4" stroke-width="5" stroke-linecap="round" stroke-linejoin="round"/>
<path d="M261.357 689.395L256.105 692.464" stroke="#E1E7F4" stroke-width="5" stroke-linecap="round" stroke-linejoin="round"/>
<path d="M271.862 683.256L268.361 685.302" stroke="#E1E7F4" stroke-width="5" stroke-linecap="round" stroke-linejoin="round"/>
<path d="M284.118 676.095L278.865 679.164" stroke="#E1E7F4" stroke-width="5" stroke-linecap="round" stroke-linejoin="round"/>
<path d="M240.681 714.299C241.648 713.734 241.974 712.493 241.409 711.526C240.844 710.559 239.602 710.233 238.635 710.798C237.668 711.363 237.342 712.605 237.907 713.572C238.472 714.539 239.714 714.864 240.681 714.299Z" fill="#E1E7F4"/>
<path d="M275.949 704.801L281.704 740.776" stroke="#E1E7F4" stroke-width="5" stroke-linecap="round" stroke-linejoin="round"/>
<path d="M287.482 707.738L298.938 710.743L295.74 722.875" stroke="#E1E7F4" stroke-width="5" stroke-linecap="round" stroke-linejoin="round"/>
<path d="M261.842 722.861L258.826 734.299L270.975 737.487" stroke="#E1E7F4" stroke-width="5" stroke-linecap="round" stroke-linejoin="round"/>
<path d="M563.322 920.627C557.779 918.805 551.787 921.833 549.966 927.376C549.717 928.136 550.13 928.954 550.889 929.203C551.649 929.452 552.466 929.039 552.716 928.28C554.039 924.253 558.391 922.053 562.418 923.377C563.177 923.626 563.995 923.213 564.245 922.453C564.494 921.694 564.081 920.876 563.322 920.627Z" fill="#E1E7F4"/>
<path d="M571.644 942.027C573.356 940.276 574.661 938.144 575.448 935.749C576.802 931.628 576.471 927.226 574.514 923.354C572.557 919.482 569.21 916.604 565.088 915.25C560.967 913.896 556.565 914.228 552.693 916.184C548.821 918.141 545.943 921.488 544.589 925.61C543.235 929.731 543.567 934.133 545.523 938.005C547.48 941.877 550.827 944.755 554.949 946.109C559.07 947.463 563.472 947.131 567.344 945.175C568.056 944.815 568.734 944.407 569.376 943.957L575.237 955.555C575.517 956.109 575.564 956.739 575.37 957.329C575.177 957.918 574.765 958.397 574.21 958.678L574.143 958.712C572.999 959.29 571.598 958.829 571.02 957.685L567.13 949.987C566.769 949.274 565.899 948.988 565.185 949.349C564.472 949.709 564.186 950.58 564.546 951.293L568.437 958.991C569.086 960.275 570.196 961.175 571.466 961.592C572.736 962.01 574.165 961.943 575.45 961.294L575.516 961.26C576.76 960.632 577.685 959.556 578.12 958.232C578.555 956.908 578.449 955.493 577.82 954.249L571.644 942.027ZM566.039 942.591C562.857 944.199 559.239 944.472 555.852 943.359C552.466 942.246 549.715 939.881 548.107 936.699C546.499 933.518 546.226 929.9 547.339 926.513C548.452 923.126 550.817 920.376 553.999 918.768C557.18 917.16 560.798 916.887 564.185 918C567.572 919.113 570.322 921.478 571.93 924.66C573.538 927.841 573.811 931.459 572.698 934.845C571.585 938.232 569.22 940.983 566.039 942.591Z" fill="#E1E7F4"/>
<path d="M612.619 901.433L569.195 887.165C568.436 886.915 567.618 887.328 567.369 888.088L559.915 910.774C559.665 911.533 560.079 912.351 560.838 912.6C561.597 912.85 562.415 912.437 562.664 911.677L569.667 890.366L610.341 903.731L596.977 944.405L577.843 938.118C577.084 937.869 576.266 938.282 576.017 939.042C575.767 939.801 576.181 940.619 576.94 940.868L597.448 947.607C598.207 947.856 599.025 947.443 599.275 946.683L613.543 903.259C613.792 902.5 613.379 901.682 612.619 901.433Z" fill="#E1E7F4"/>
<path d="M579.163 897.295L572.892 895.234C572.133 894.985 571.315 895.398 571.065 896.157L569.005 902.429C568.755 903.188 569.169 904.006 569.928 904.255L574.824 905.864L571.389 916.321C571.139 917.08 571.552 917.898 572.312 918.148L584.143 922.035C584.903 922.285 585.72 921.871 585.97 921.112L589.858 909.28C590.107 908.521 589.694 907.703 588.934 907.454L578.478 904.018L580.087 899.121C580.336 898.362 579.923 897.544 579.163 897.295ZM573.363 898.436L576.885 899.593L575.728 903.114L572.206 901.957L573.363 898.436ZM583.672 918.833L574.59 915.849L577.574 906.768L586.656 909.752L583.672 918.833Z" fill="#E1E7F4"/>
<path d="M586.247 927.804L582.122 926.449C581.363 926.199 580.545 926.612 580.296 927.372L578.488 932.872C578.239 933.631 578.652 934.449 579.412 934.698L584.911 936.505C585.671 936.755 586.488 936.342 586.738 935.582L588.093 931.457L596.456 934.205C597.216 934.455 598.034 934.042 598.283 933.282L602.171 921.451C602.42 920.691 602.007 919.873 601.248 919.624L591.509 916.424C590.75 916.175 589.932 916.588 589.683 917.347L586.247 927.804ZM584.44 933.304L581.69 932.4L582.594 929.65L585.343 930.554L584.44 933.304ZM591.981 919.626L598.969 921.922L595.985 931.004L588.997 928.708L591.981 919.626Z" fill="#E1E7F4"/>
<path d="M592.39 913.743L602.129 916.943C602.888 917.192 603.706 916.779 603.955 916.02L606.641 907.847C606.89 907.087 606.477 906.269 605.718 906.02L595.979 902.82C595.22 902.571 594.402 902.984 594.153 903.743L591.467 911.916C591.218 912.676 591.631 913.493 592.39 913.743ZM596.451 906.022L603.439 908.318L601.657 913.741L594.669 911.445L596.451 906.022Z" fill="#E1E7F4"/>
<path d="M1671.33 318.618C1666.04 321.072 1663.73 327.376 1666.19 332.669C1666.52 333.394 1667.38 333.709 1668.11 333.373C1668.83 333.037 1669.15 332.176 1668.81 331.451C1667.03 327.606 1668.71 323.027 1672.55 321.243C1673.28 320.907 1673.59 320.047 1673.26 319.322C1672.92 318.596 1672.06 318.281 1671.33 318.618Z" fill="#E1E7F4"/>
<path d="M1692.03 328.568C1692.08 326.119 1691.58 323.671 1690.52 321.384C1688.69 317.448 1685.45 314.459 1681.37 312.967C1677.3 311.475 1672.89 311.658 1668.95 313.483C1665.02 315.309 1662.03 318.557 1660.54 322.63C1659.04 326.704 1659.23 331.115 1661.05 335.05C1662.88 338.986 1666.13 341.975 1670.2 343.467C1674.27 344.959 1678.68 344.776 1682.62 342.951C1686.55 341.125 1689.54 337.877 1691.04 333.804C1691.31 333.054 1691.53 332.294 1691.69 331.527L1703.89 335.997C1704.47 336.21 1704.94 336.638 1705.2 337.201C1705.46 337.764 1705.49 338.395 1705.27 338.98L1705.25 339.05C1704.81 340.253 1703.47 340.874 1702.26 340.433L1694.17 337.466C1693.42 337.191 1692.58 337.577 1692.31 338.327C1692.03 339.078 1692.42 339.909 1693.17 340.184L1701.27 343.151C1702.62 343.645 1704.05 343.545 1705.26 342.982C1706.47 342.42 1707.47 341.396 1707.97 340.044L1707.99 339.974C1708.47 338.665 1708.41 337.248 1707.82 335.983C1707.24 334.719 1706.19 333.758 1704.89 333.279L1692.03 328.568ZM1688.32 332.808C1687.09 336.155 1684.64 338.825 1681.4 340.325C1678.17 341.825 1674.54 341.976 1671.19 340.749C1667.85 339.523 1665.18 337.066 1663.68 333.832C1662.18 330.598 1662.03 326.974 1663.25 323.626C1664.48 320.279 1666.94 317.609 1670.17 316.109C1673.4 314.609 1677.03 314.459 1680.38 315.685C1683.72 316.911 1686.39 319.368 1687.89 322.602C1689.39 325.836 1689.54 329.46 1688.32 332.808Z" fill="#E1E7F4"/>
<path d="M1694.24 270.931L1652.77 290.162C1652.05 290.498 1651.73 291.358 1652.07 292.084L1662.12 313.746C1662.45 314.472 1663.31 314.787 1664.04 314.45C1664.76 314.114 1665.08 313.254 1664.74 312.528L1655.3 292.179L1694.14 274.166L1712.16 313.005L1693.89 321.479C1693.16 321.815 1692.85 322.675 1693.18 323.401C1693.52 324.126 1694.38 324.441 1695.1 324.105L1714.69 315.022C1715.41 314.686 1715.73 313.826 1715.39 313.1L1696.16 271.635C1695.82 270.91 1694.96 270.595 1694.24 270.931Z" fill="#E1E7F4"/>
<path d="M1666.97 290.755L1660.99 293.532C1660.26 293.869 1659.94 294.729 1660.28 295.454L1663.06 301.443C1663.39 302.168 1664.26 302.483 1664.98 302.147L1669.66 299.978L1674.29 309.963C1674.62 310.689 1675.48 311.004 1676.21 310.667L1687.51 305.428C1688.23 305.091 1688.55 304.231 1688.21 303.506L1682.97 292.208C1682.63 291.483 1681.77 291.168 1681.05 291.504L1671.06 296.135L1668.9 291.459C1668.56 290.734 1667.7 290.419 1666.97 290.755ZM1663.52 295.549L1666.88 293.99L1668.44 297.353L1665.08 298.912L1663.52 295.549ZM1684.98 303.411L1676.3 307.433L1672.28 298.761L1680.95 294.739L1684.98 303.411Z" fill="#E1E7F4"/>
<path d="M1692.98 308.205L1689.04 310.032C1688.32 310.368 1688 311.229 1688.34 311.954L1690.78 317.205C1691.11 317.931 1691.97 318.246 1692.7 317.909L1697.95 315.474C1698.67 315.138 1698.99 314.277 1698.65 313.552L1696.83 309.613L1704.81 305.91C1705.54 305.573 1705.85 304.713 1705.52 303.988L1700.28 292.69C1699.94 291.965 1699.08 291.65 1698.35 291.986L1689.06 296.299C1688.33 296.635 1688.02 297.495 1688.35 298.22L1692.98 308.205ZM1695.42 313.457L1692.79 314.675L1691.57 312.049L1694.2 310.831L1695.42 313.457ZM1691.59 298.315L1698.26 295.221L1702.28 303.893L1695.61 306.988L1691.59 298.315Z" fill="#E1E7F4"/>
<path d="M1687.87 293.738L1697.17 289.425C1697.89 289.089 1698.21 288.229 1697.87 287.504L1694.25 279.699C1693.92 278.974 1693.05 278.659 1692.33 278.995L1683.03 283.308C1682.31 283.644 1681.99 284.504 1682.33 285.23L1685.95 293.034C1686.28 293.759 1687.14 294.074 1687.87 293.738ZM1685.56 285.325L1692.23 282.23L1694.64 287.408L1687.96 290.503L1685.56 285.325Z" fill="#E1E7F4"/>
<path d="M1193.08 235.838L1186.77 232.36C1186.6 232.259 1186.42 232.193 1186.22 232.168C1186.03 232.143 1185.83 232.157 1185.65 232.212C1185.46 232.266 1185.28 232.359 1185.13 232.483C1184.98 232.608 1184.86 232.763 1184.78 232.938L1183.42 235.493C1183.32 235.655 1183.26 235.836 1183.24 236.023C1183.21 236.21 1183.23 236.4 1183.28 236.582C1183.33 236.763 1183.42 236.931 1183.54 237.077C1183.66 237.222 1183.81 237.342 1183.98 237.428L1192.87 242.213C1193.2 242.403 1193.56 242.523 1193.93 242.569C1194.31 242.614 1194.69 242.583 1195.05 242.478C1195.41 242.374 1195.75 242.197 1196.04 241.958C1196.33 241.719 1196.57 241.424 1196.75 241.089L1206.72 222.881C1206.83 222.715 1206.9 222.529 1206.92 222.334C1206.95 222.14 1206.94 221.942 1206.88 221.754C1206.83 221.566 1206.73 221.391 1206.61 221.242C1206.48 221.092 1206.32 220.971 1206.15 220.886L1203.65 219.512C1203.49 219.416 1203.31 219.354 1203.12 219.33C1202.93 219.307 1202.74 219.322 1202.56 219.374C1202.37 219.427 1202.21 219.517 1202.06 219.637C1201.91 219.758 1201.79 219.907 1201.71 220.076L1193.08 235.838Z" fill="#E1E7F4"/>
<path d="M1215.95 233.049C1215.66 230.061 1214.82 227.153 1213.47 224.473L1216.93 219.254C1217.49 218.405 1217.74 217.387 1217.65 216.372C1217.55 215.358 1217.11 214.407 1216.39 213.68L1213.39 210.768C1212.84 210.256 1212.16 209.898 1211.43 209.731C1210.7 209.563 1209.94 209.592 1209.22 209.813C1208.73 209.946 1208.29 210.186 1207.91 210.517L1202.73 214.287C1200.02 213.022 1197.09 212.292 1194.11 212.137L1191.41 206.543C1190.94 205.678 1190.19 205.008 1189.27 204.658C1188.35 204.308 1187.34 204.3 1186.42 204.636L1182.43 205.792C1181.47 205.986 1180.61 206.53 1180.02 207.319C1179.43 208.108 1179.15 209.087 1179.24 210.068L1179.92 216.141C1177.43 217.85 1175.3 220.046 1173.68 222.596L1167.19 222.207C1166.69 222.191 1166.2 222.227 1165.71 222.312C1164.99 222.517 1164.33 222.904 1163.8 223.435C1163.28 223.967 1162.9 224.625 1162.7 225.347L1161.71 229.416C1161.47 230.413 1161.59 231.464 1162.06 232.379C1162.52 233.295 1163.3 234.015 1164.24 234.412L1169.96 236.972C1170.08 238.465 1170.37 239.941 1170.8 241.376C1171.2 242.821 1171.75 244.22 1172.44 245.549L1169 250.817C1168.43 251.666 1168.18 252.684 1168.27 253.699C1168.37 254.714 1168.81 255.665 1169.53 256.391L1172.54 259.304C1173.08 259.816 1173.76 260.173 1174.49 260.341C1175.22 260.508 1175.99 260.48 1176.7 260.258C1177.19 260.126 1177.64 259.885 1178.01 259.554L1183.19 255.784C1185.9 257.05 1188.83 257.78 1191.81 257.934L1194.54 263.629C1194.99 264.54 1195.74 265.263 1196.67 265.667C1197.6 266.072 1198.65 266.131 1199.61 265.835L1203.6 264.679C1204.59 264.388 1205.43 263.759 1206 262.904C1206.56 262.048 1206.8 261.021 1206.68 260.004L1205.94 253.731C1208.54 251.921 1210.74 249.592 1212.39 246.89L1218.39 247.424C1218.92 247.429 1219.45 247.385 1219.97 247.289C1220.69 247.085 1221.34 246.698 1221.87 246.166C1222.4 245.635 1222.78 244.976 1222.98 244.255L1223.92 240.415C1224.23 239.486 1224.17 238.474 1223.75 237.588C1223.33 236.703 1222.59 236.012 1221.68 235.659L1215.95 233.049ZM1209.87 224.715L1206.65 230.577L1206.88 231.355C1207.77 234.405 1207.63 237.667 1206.48 240.629C1205.32 243.592 1203.22 246.088 1200.5 247.728C1197.77 249.368 1194.58 250.059 1191.42 249.693C1188.27 249.327 1185.32 247.925 1183.04 245.705C1180.76 243.485 1179.29 240.574 1178.84 237.426C1178.4 234.278 1179.01 231.071 1180.58 228.306C1182.15 225.542 1184.59 223.375 1187.52 222.146C1190.45 220.917 1193.71 220.695 1196.78 221.513L1198.52 218.372C1198.84 217.787 1199.27 217.271 1199.79 216.853C1200.3 216.436 1200.9 216.125 1201.54 215.94C1202.18 215.755 1202.85 215.698 1203.51 215.774C1204.17 215.85 1204.81 216.056 1205.39 216.381L1207.96 217.798C1208.59 218.14 1209.13 218.608 1209.56 219.172C1209.99 219.736 1210.29 220.384 1210.46 221.074C1210.75 222.318 1210.54 223.626 1209.87 224.715Z" fill="#E1E7F4"/>
<path d="M1426.63 1058.67L1420.32 1055.2C1420.15 1055.1 1419.96 1055.03 1419.77 1055.01C1419.58 1054.98 1419.38 1054.99 1419.19 1055.05C1419.01 1055.1 1418.83 1055.2 1418.68 1055.32C1418.53 1055.45 1418.41 1055.6 1418.32 1055.77L1416.97 1058.33C1416.87 1058.49 1416.81 1058.67 1416.78 1058.86C1416.76 1059.05 1416.77 1059.24 1416.83 1059.42C1416.88 1059.6 1416.97 1059.77 1417.09 1059.91C1417.21 1060.06 1417.36 1060.18 1417.53 1060.26L1426.41 1065.05C1426.74 1065.24 1427.1 1065.36 1427.48 1065.41C1427.86 1065.45 1428.24 1065.42 1428.6 1065.31C1428.96 1065.21 1429.3 1065.03 1429.59 1064.8C1429.88 1064.56 1430.12 1064.26 1430.29 1063.93L1440.27 1045.72C1440.37 1045.55 1440.44 1045.37 1440.47 1045.17C1440.5 1044.98 1440.48 1044.78 1440.43 1044.59C1440.37 1044.4 1440.28 1044.23 1440.15 1044.08C1440.03 1043.93 1439.87 1043.81 1439.69 1043.72L1437.2 1042.35C1437.03 1042.25 1436.85 1042.19 1436.66 1042.17C1436.48 1042.14 1436.29 1042.16 1436.1 1042.21C1435.92 1042.26 1435.75 1042.35 1435.61 1042.47C1435.46 1042.59 1435.34 1042.74 1435.25 1042.91L1426.63 1058.67Z" fill="#E1E7F4"/>
<path d="M1449.5 1055.89C1449.21 1052.9 1448.37 1049.99 1447.01 1047.31L1450.47 1042.09C1451.04 1041.24 1451.29 1040.22 1451.19 1039.21C1451.1 1038.19 1450.65 1037.24 1449.94 1036.52L1446.93 1033.6C1446.38 1033.09 1445.71 1032.74 1444.98 1032.57C1444.25 1032.4 1443.48 1032.43 1442.76 1032.65C1442.28 1032.78 1441.83 1033.02 1441.46 1033.35L1436.28 1037.12C1433.57 1035.86 1430.64 1035.13 1427.66 1034.97L1424.95 1029.38C1424.49 1028.51 1423.73 1027.85 1422.82 1027.5C1421.9 1027.14 1420.89 1027.14 1419.97 1027.47L1415.98 1028.63C1415.01 1028.82 1414.15 1029.37 1413.57 1030.16C1412.98 1030.95 1412.7 1031.92 1412.79 1032.9L1413.47 1038.98C1410.97 1040.69 1408.85 1042.88 1407.23 1045.43L1400.74 1045.04C1400.24 1045.03 1399.74 1045.06 1399.26 1045.15C1398.53 1045.35 1397.88 1045.74 1397.35 1046.27C1396.82 1046.8 1396.44 1047.46 1396.24 1048.18L1395.26 1052.25C1395.02 1053.25 1395.14 1054.3 1395.6 1055.22C1396.07 1056.13 1396.84 1056.85 1397.79 1057.25L1403.5 1059.81C1403.63 1061.3 1403.91 1062.78 1404.35 1064.21C1404.74 1065.66 1405.29 1067.06 1405.99 1068.39L1402.54 1073.65C1401.98 1074.5 1401.72 1075.52 1401.82 1076.54C1401.92 1077.55 1402.36 1078.5 1403.08 1079.23L1406.08 1082.14C1406.63 1082.65 1407.31 1083.01 1408.04 1083.18C1408.77 1083.35 1409.53 1083.32 1410.25 1083.1C1410.73 1082.96 1411.18 1082.72 1411.56 1082.39L1416.74 1078.62C1419.45 1079.89 1422.37 1080.62 1425.36 1080.77L1428.09 1086.47C1428.53 1087.38 1429.29 1088.1 1430.22 1088.5C1431.15 1088.91 1432.19 1088.97 1433.16 1088.67L1437.15 1087.52C1438.13 1087.23 1438.98 1086.6 1439.54 1085.74C1440.11 1084.88 1440.35 1083.86 1440.23 1082.84L1439.49 1076.57C1442.09 1074.76 1444.29 1072.43 1445.94 1069.73L1451.93 1070.26C1452.46 1070.27 1452.99 1070.22 1453.52 1070.13C1454.24 1069.92 1454.89 1069.54 1455.42 1069C1455.95 1068.47 1456.33 1067.81 1456.53 1067.09L1457.47 1063.25C1457.78 1062.32 1457.72 1061.31 1457.3 1060.43C1456.88 1059.54 1456.14 1058.85 1455.23 1058.5L1449.5 1055.89ZM1443.42 1047.55L1440.2 1053.41L1440.42 1054.19C1441.32 1057.24 1441.18 1060.5 1440.03 1063.47C1438.87 1066.43 1436.77 1068.93 1434.04 1070.57C1431.32 1072.21 1428.13 1072.9 1424.97 1072.53C1421.81 1072.16 1418.86 1070.76 1416.59 1068.54C1414.31 1066.32 1412.83 1063.41 1412.39 1060.26C1411.94 1057.11 1412.55 1053.91 1414.12 1051.14C1415.69 1048.38 1418.14 1046.21 1421.07 1044.98C1424 1043.75 1427.26 1043.53 1430.33 1044.35L1432.07 1041.21C1432.38 1040.62 1432.81 1040.11 1433.33 1039.69C1433.85 1039.27 1434.45 1038.96 1435.09 1038.78C1435.73 1038.59 1436.4 1038.54 1437.06 1038.61C1437.72 1038.69 1438.36 1038.89 1438.94 1039.22L1441.51 1040.63C1442.13 1040.98 1442.68 1041.44 1443.11 1042.01C1443.53 1042.57 1443.84 1043.22 1444.01 1043.91C1444.3 1045.15 1444.09 1046.46 1443.42 1047.55Z" fill="#E1E7F4"/>
<path d="M-29.5602 294.674L15.6105 268.28C17.0964 267.412 18.1765 265.989 18.6133 264.324C19.05 262.66 18.8076 260.89 17.9394 259.404L17.4381 258.546C16.2612 256.553 14.3448 255.105 12.106 254.518C9.86708 253.93 7.48681 254.251 5.48295 255.409L-42.454 283.42C-44.4471 284.596 -45.8949 286.513 -46.4823 288.752C-47.0697 290.991 -46.7493 293.371 -45.5908 295.375L-17.5805 343.312C-16.4035 345.305 -14.4872 346.753 -12.2483 347.34C-10.0094 347.927 -7.62917 347.607 -5.62531 346.448L42.3117 318.438C44.3048 317.261 45.7525 315.345 46.3399 313.106C46.9274 310.867 46.607 308.487 45.4484 306.483L26.3282 273.76" stroke="#E1E7F4" stroke-width="5" stroke-linecap="round" stroke-linejoin="round"/>
<path d="M-2.1378 269.256L-5.6394 271.302" stroke="#E1E7F4" stroke-width="5" stroke-linecap="round" stroke-linejoin="round"/>
<path d="M10.1179 262.095L4.86548 265.164" stroke="#E1E7F4" stroke-width="5" stroke-linecap="round" stroke-linejoin="round"/>
<path d="M1.94883 290.8L7.70419 326.776" stroke="#E1E7F4" stroke-width="5" stroke-linecap="round" stroke-linejoin="round"/>
<path d="M13.4821 293.738L24.938 296.743L21.7401 308.875" stroke="#E1E7F4" stroke-width="5" stroke-linecap="round" stroke-linejoin="round"/>
<path d="M-12.1583 308.86L-15.1743 320.299L-3.02497 323.487" stroke="#E1E7F4" stroke-width="5" stroke-linecap="round" stroke-linejoin="round"/>
<path d="M1972.01 366.972L1977.7 362.665L1979.86 365.516L1945.74 391.358L1943.58 388.507L1949.27 384.2L1945.63 373.492L1962.69 360.571L1972.01 366.972ZM1949.29 272L1994.65 331.878L1909.35 396.483L1864 336.605L1949.29 272ZM1947.93 282.01L1874.01 338L1910.72 386.473L1984.64 330.483L1947.93 282.01ZM1979.64 329.785L1911.4 381.468L1879.01 338.698L1947.24 287.015L1979.64 329.785ZM1896.18 343.643L1918.92 326.415L1916.76 323.564L1894.02 340.792L1896.18 343.643ZM1922.67 354.989L1911.29 363.603L1913.45 366.454L1924.83 357.84L1922.67 354.989ZM1941.09 332.058L1915.5 351.439L1917.66 354.291L1943.25 334.909L1941.09 332.058ZM1936.77 326.355L1911.19 345.737L1913.35 348.588L1938.93 329.207L1936.77 326.355ZM1935.3 318.499L1906.87 340.034L1909.03 342.885L1937.46 321.351L1935.3 318.499Z" fill="#E1E7F4"/>
</g>
<defs>
<clipPath id="clip0_58_177">
<rect width="1920" height="1080" fill="white"/>
</clipPath>
</defs>
</svg>
