<svg width="2062" height="1001" viewBox="0 0 2062 1001" fill="none" xmlns="http://www.w3.org/2000/svg">
<path d="M415.932 130.163L422.11 133.73L420.321 136.827L383.255 115.427L385.044 112.33L391.222 115.896L399.676 108.386L418.209 119.086L415.932 130.163ZM494.621 72.3369L457.063 137.389L364.398 83.8887L401.956 18.8369L494.621 72.3369ZM484.866 74.9657L404.557 28.599L374.153 81.26L454.462 127.627L484.866 74.9657ZM453.162 122.746L379.03 79.9456L405.857 33.48L479.989 76.28L453.162 122.746ZM407.97 51.2209L432.68 65.4875L434.469 62.3898L409.758 48.1232L407.97 51.2209ZM407.806 80.0381L395.451 72.9048L393.662 76.0025L406.017 83.1358L407.806 80.0381ZM436.093 88.1094L408.294 72.0594L406.505 75.1571L434.305 91.2071L436.093 88.1094ZM439.67 81.914L411.871 65.864L410.082 68.9617L437.882 85.0117L439.67 81.914ZM446.336 77.5019L415.448 59.6686L413.659 62.7663L444.548 80.5996L446.336 77.5019Z" fill="#E1E7F4"/>
<path d="M1175.21 738.358L1181.62 735.233L1183.19 738.449L1144.71 757.195L1143.15 753.98L1149.56 750.855L1148.06 739.647L1167.3 730.273L1175.21 738.358ZM1171.31 640.784L1204.21 708.311L1108.02 755.178L1075.12 687.651L1171.31 640.784ZM1168.03 650.34L1084.67 690.958L1111.3 745.622L1194.67 705.004L1168.03 650.34ZM1189.89 703.351L1112.94 740.845L1089.44 692.611L1166.39 655.118L1189.89 703.351ZM1105.33 700.787L1130.98 688.289L1129.41 685.073L1103.76 697.571L1105.33 700.787ZM1129.12 717.047L1116.29 723.296L1117.86 726.511L1130.68 720.262L1129.12 717.047ZM1151.63 698.118L1122.78 712.178L1124.34 715.393L1153.2 701.333L1151.63 698.118ZM1148.5 691.687L1119.64 705.747L1121.21 708.962L1150.07 694.902L1148.5 691.687ZM1148.57 683.693L1116.51 699.316L1118.08 702.531L1150.14 686.909L1148.57 683.693Z" fill="#E1E7F4"/>
<path d="M98.9395 765.889L105.42 762.907L106.915 766.157L68.0328 784.046L66.5377 780.796L73.0181 777.815L71.7731 766.575L91.2142 757.631L98.9395 765.889ZM97.2053 668.253L128.601 736.492L31.396 781.215L0 712.976L97.2053 668.253ZM93.7151 677.733L9.47045 716.493L34.8862 771.734L119.131 732.975L93.7151 677.733ZM114.396 731.216L36.6314 766.994L14.2057 718.252L91.9699 682.474L114.396 731.216ZM29.9064 726.777L55.8278 714.851L54.3328 711.602L28.4113 723.528L29.9064 726.777ZM53.3324 743.561L40.3717 749.524L41.8668 752.773L54.8275 746.81L53.3324 743.561ZM76.2637 725.136L47.1021 738.553L48.5972 741.802L77.7588 728.385L76.2637 725.136ZM73.2736 718.637L44.1121 732.054L45.6071 735.303L74.7687 721.886L73.2736 718.637ZM73.5237 710.647L41.122 725.555L42.617 728.804L75.0188 713.897L73.5237 710.647Z" fill="#E1E7F4"/>
<path d="M1674 580.495L1721.56 602.272C1723.13 602.988 1724.91 603.054 1726.53 602.454C1728.14 601.854 1729.45 600.638 1730.17 599.073L1730.58 598.17C1731.53 596.061 1731.62 593.66 1730.81 591.491C1730 589.321 1728.37 587.558 1726.27 586.585L1675.79 563.475C1673.68 562.521 1671.28 562.439 1669.11 563.246C1666.94 564.052 1665.18 565.683 1664.2 567.784L1641.09 618.266C1640.14 620.375 1640.06 622.775 1640.86 624.944C1641.67 627.114 1643.3 628.877 1645.4 629.85L1695.88 652.96C1697.99 653.914 1700.39 653.997 1702.56 653.19C1704.73 652.383 1706.5 650.752 1707.47 648.652L1723.24 614.192" stroke="#E1E7F4" stroke-width="5" stroke-linecap="round" stroke-linejoin="round"/>
<path d="M1699.5 583.249L1693.97 580.717" stroke="#E1E7F4" stroke-width="5" stroke-linecap="round" stroke-linejoin="round"/>
<path d="M1710.56 588.313L1706.87 586.625" stroke="#E1E7F4" stroke-width="5" stroke-linecap="round" stroke-linejoin="round"/>
<path d="M1723.47 594.222L1717.93 591.689" stroke="#E1E7F4" stroke-width="5" stroke-linecap="round" stroke-linejoin="round"/>
<path d="M1667.23 580.655C1668.25 581.121 1669.45 580.673 1669.92 579.655C1670.39 578.637 1669.94 577.433 1668.92 576.967C1667.9 576.501 1666.7 576.949 1666.23 577.967C1665.77 578.985 1666.21 580.188 1667.23 580.655Z" fill="#E1E7F4"/>
<path d="M1695.28 604.046L1669.16 629.443" stroke="#E1E7F4" stroke-width="5" stroke-linecap="round" stroke-linejoin="round"/>
<path d="M1699.51 615.17L1703.64 626.271L1691.88 630.631" stroke="#E1E7F4" stroke-width="5" stroke-linecap="round" stroke-linejoin="round"/>
<path d="M1672.4 602.89L1661.3 607.001L1665.68 618.773" stroke="#E1E7F4" stroke-width="5" stroke-linecap="round" stroke-linejoin="round"/>
<path d="M300.896 511.511L346.067 485.117C347.552 484.249 348.633 482.826 349.069 481.162C349.506 479.497 349.264 477.727 348.395 476.241L347.894 475.383C346.717 473.39 344.801 471.942 342.562 471.355C340.323 470.768 337.943 471.088 335.939 472.247L288.002 500.257C286.009 501.434 284.561 503.35 283.974 505.589C283.386 507.828 283.707 510.208 284.865 512.212L312.876 560.149C314.053 562.142 315.969 563.59 318.208 564.177C320.447 564.765 322.827 564.444 324.831 563.286L372.768 535.275C374.761 534.098 376.209 532.182 376.796 529.943C377.383 527.704 377.063 525.324 375.904 523.32L356.784 490.598" stroke="#E1E7F4" stroke-width="5" stroke-linecap="round" stroke-linejoin="round"/>
<path d="M317.813 492.232L312.561 495.301" stroke="#E1E7F4" stroke-width="5" stroke-linecap="round" stroke-linejoin="round"/>
<path d="M328.318 486.094L324.816 488.14" stroke="#E1E7F4" stroke-width="5" stroke-linecap="round" stroke-linejoin="round"/>
<path d="M340.574 478.933L335.321 482.002" stroke="#E1E7F4" stroke-width="5" stroke-linecap="round" stroke-linejoin="round"/>
<path d="M297.137 517.137C298.104 516.572 298.43 515.33 297.865 514.363C297.3 513.396 296.058 513.07 295.091 513.635C294.124 514.2 293.798 515.442 294.363 516.409C294.928 517.376 296.17 517.702 297.137 517.137Z" fill="#E1E7F4"/>
<path d="M332.405 507.637L338.16 543.613" stroke="#E1E7F4" stroke-width="5" stroke-linecap="round" stroke-linejoin="round"/>
<path d="M343.938 510.575L355.394 513.581L352.196 525.713" stroke="#E1E7F4" stroke-width="5" stroke-linecap="round" stroke-linejoin="round"/>
<path d="M318.298 525.698L315.282 537.136L327.431 540.324" stroke="#E1E7F4" stroke-width="5" stroke-linecap="round" stroke-linejoin="round"/>
<path d="M619.778 723.463C614.235 721.642 608.243 724.67 606.422 730.213C606.173 730.972 606.586 731.79 607.345 732.039C608.105 732.289 608.922 731.876 609.172 731.116C610.495 727.089 614.847 724.89 618.874 726.213C619.633 726.462 620.451 726.049 620.701 725.29C620.95 724.53 620.537 723.713 619.778 723.463Z" fill="#E1E7F4"/>
<path d="M628.1 744.863C629.812 743.112 631.117 740.981 631.904 738.585C633.258 734.464 632.927 730.062 630.97 726.19C629.013 722.319 625.666 719.44 621.544 718.086C617.423 716.732 613.021 717.064 609.149 719.021C605.277 720.977 602.399 724.325 601.045 728.446C599.691 732.567 600.023 736.969 601.979 740.841C603.936 744.713 607.284 747.591 611.405 748.945C615.526 750.299 619.928 749.968 623.8 748.011C624.512 747.651 625.19 747.243 625.832 746.793L631.693 758.391C631.973 758.945 632.02 759.575 631.827 760.165C631.633 760.755 631.221 761.234 630.666 761.514L630.599 761.548C629.455 762.126 628.054 761.666 627.476 760.522L623.586 752.824C623.225 752.111 622.355 751.825 621.641 752.185C620.928 752.546 620.642 753.416 621.003 754.13L624.893 761.828C625.542 763.112 626.652 764.012 627.922 764.429C629.192 764.846 630.621 764.78 631.906 764.131L631.972 764.097C633.216 763.468 634.141 762.393 634.576 761.068C635.011 759.744 634.905 758.33 634.276 757.085L628.1 744.863ZM622.495 745.428C619.313 747.036 615.695 747.308 612.308 746.195C608.922 745.083 606.171 742.718 604.563 739.536C602.955 736.354 602.682 732.736 603.795 729.35C604.908 725.963 607.273 723.212 610.455 721.604C613.636 719.996 617.254 719.723 620.641 720.836C624.028 721.949 626.778 724.314 628.386 727.496C629.994 730.678 630.267 734.295 629.154 737.682C628.041 741.069 625.676 743.82 622.495 745.428Z" fill="#E1E7F4"/>
<path d="M669.075 704.269L625.651 690.002C624.892 689.752 624.074 690.165 623.825 690.925L616.371 713.611C616.121 714.37 616.535 715.188 617.294 715.437C618.053 715.687 618.871 715.274 619.121 714.514L626.123 693.203L666.797 706.568L653.433 747.242L634.299 740.955C633.54 740.706 632.722 741.119 632.473 741.878C632.223 742.638 632.637 743.456 633.396 743.705L653.904 750.443C654.663 750.693 655.481 750.28 655.731 749.52L669.999 706.096C670.248 705.337 669.835 704.519 669.075 704.269Z" fill="#E1E7F4"/>
<path d="M635.619 700.131L629.348 698.071C628.589 697.821 627.771 698.235 627.521 698.994L625.461 705.265C625.211 706.025 625.625 706.843 626.384 707.092L631.28 708.701L627.845 719.158C627.595 719.917 628.009 720.735 628.768 720.984L640.599 724.872C641.359 725.121 642.177 724.708 642.426 723.949L646.314 712.117C646.563 711.358 646.15 710.54 645.39 710.29L634.934 706.855L636.543 701.958C636.792 701.199 636.379 700.381 635.619 700.131ZM629.819 701.272L633.341 702.43L632.184 705.951L628.662 704.794L629.819 701.272ZM640.128 721.67L631.046 718.686L634.03 709.604L643.112 712.588L640.128 721.67Z" fill="#E1E7F4"/>
<path d="M642.703 730.641L638.578 729.285C637.819 729.036 637.001 729.449 636.752 730.208L634.945 735.708C634.695 736.468 635.108 737.285 635.868 737.535L641.367 739.342C642.127 739.591 642.944 739.178 643.194 738.419L644.549 734.294L652.913 737.042C653.672 737.291 654.49 736.878 654.739 736.119L658.627 724.287C658.876 723.528 658.463 722.71 657.704 722.46L647.965 719.261C647.206 719.011 646.388 719.424 646.139 720.184L642.703 730.641ZM640.896 736.14L638.146 735.237L639.05 732.487L641.799 733.39L640.896 736.14ZM648.437 722.462L655.425 724.758L652.441 733.84L645.453 731.544L648.437 722.462Z" fill="#E1E7F4"/>
<path d="M648.847 716.58L658.585 719.779C659.344 720.029 660.162 719.616 660.411 718.856L663.097 710.683C663.346 709.924 662.933 709.106 662.174 708.857L652.435 705.657C651.676 705.407 650.858 705.82 650.609 706.58L647.923 714.753C647.674 715.512 648.087 716.33 648.847 716.58ZM652.907 708.858L659.895 711.155L658.113 716.578L651.125 714.282L652.907 708.858Z" fill="#E1E7F4"/>
<path d="M1940.78 834.013C1935.24 832.192 1929.25 835.22 1927.43 840.763C1927.18 841.522 1927.59 842.34 1928.35 842.589C1929.11 842.839 1929.93 842.426 1930.18 841.666C1931.5 837.639 1935.85 835.44 1939.88 836.763C1940.64 837.012 1941.46 836.599 1941.71 835.84C1941.96 835.08 1941.54 834.262 1940.78 834.013Z" fill="#E1E7F4"/>
<path d="M1949.11 855.413C1950.82 853.662 1952.12 851.531 1952.91 849.135C1954.27 845.014 1953.93 840.612 1951.98 836.74C1950.02 832.868 1946.67 829.99 1942.55 828.636C1938.43 827.282 1934.03 827.614 1930.16 829.57C1926.28 831.527 1923.41 834.874 1922.05 838.996C1920.7 843.117 1921.03 847.519 1922.99 851.391C1924.94 855.263 1928.29 858.141 1932.41 859.495C1936.53 860.849 1940.94 860.517 1944.81 858.561C1945.52 858.201 1946.2 857.793 1946.84 857.343L1952.7 868.941C1952.98 869.495 1953.03 870.125 1952.83 870.715C1952.64 871.304 1952.23 871.783 1951.67 872.064L1951.61 872.098C1950.46 872.676 1949.06 872.216 1948.48 871.072L1944.59 863.374C1944.23 862.66 1943.36 862.374 1942.65 862.735C1941.93 863.096 1941.65 863.966 1942.01 864.679L1945.9 872.377C1946.55 873.661 1947.66 874.562 1948.93 874.979C1950.2 875.396 1951.63 875.33 1952.91 874.681L1952.98 874.647C1954.22 874.018 1955.15 872.943 1955.58 871.618C1956.02 870.294 1955.91 868.879 1955.28 867.635L1949.11 855.413ZM1943.5 855.977C1940.32 857.585 1936.7 857.858 1933.32 856.745C1929.93 855.632 1927.18 853.267 1925.57 850.085C1923.96 846.904 1923.69 843.286 1924.8 839.899C1925.91 836.513 1928.28 833.762 1931.46 832.154C1934.64 830.546 1938.26 830.273 1941.65 831.386C1945.03 832.499 1947.79 834.864 1949.39 838.046C1951 841.227 1951.27 844.845 1950.16 848.232C1949.05 851.619 1946.68 854.369 1943.5 855.977Z" fill="#E1E7F4"/>
<path d="M1990.08 814.819L1946.66 800.551C1945.9 800.302 1945.08 800.715 1944.83 801.475L1937.38 824.16C1937.13 824.92 1937.54 825.737 1938.3 825.987C1939.06 826.236 1939.88 825.823 1940.13 825.064L1947.13 803.753L1987.8 817.117L1974.44 857.792L1955.31 851.505C1954.55 851.256 1953.73 851.669 1953.48 852.428C1953.23 853.188 1953.64 854.005 1954.4 854.255L1974.91 860.993C1975.67 861.243 1976.49 860.83 1976.74 860.07L1991.01 816.646C1991.25 815.886 1990.84 815.069 1990.08 814.819Z" fill="#E1E7F4"/>
<path d="M1956.63 810.681L1950.35 808.621C1949.6 808.371 1948.78 808.784 1948.53 809.544L1946.47 815.815C1946.22 816.575 1946.63 817.392 1947.39 817.642L1952.29 819.251L1948.85 829.707C1948.6 830.467 1949.02 831.285 1949.77 831.534L1961.61 835.422C1962.37 835.671 1963.18 835.258 1963.43 834.498L1967.32 822.667C1967.57 821.907 1967.16 821.09 1966.4 820.84L1955.94 817.404L1957.55 812.508C1957.8 811.748 1957.39 810.931 1956.63 810.681ZM1950.83 811.822L1954.35 812.979L1953.19 816.501L1949.67 815.344L1950.83 811.822ZM1961.13 832.22L1952.05 829.236L1955.04 820.154L1964.12 823.138L1961.13 832.22Z" fill="#E1E7F4"/>
<path d="M1963.71 841.19L1959.59 839.835C1958.83 839.586 1958.01 839.999 1957.76 840.758L1955.95 846.258C1955.7 847.017 1956.12 847.835 1956.87 848.085L1962.37 849.892C1963.13 850.141 1963.95 849.728 1964.2 848.968L1965.56 844.844L1973.92 847.592C1974.68 847.841 1975.5 847.428 1975.75 846.668L1979.63 834.837C1979.88 834.077 1979.47 833.26 1978.71 833.01L1968.97 829.811C1968.21 829.561 1967.4 829.974 1967.15 830.734L1963.71 841.19ZM1961.9 846.69L1959.15 845.786L1960.06 843.037L1962.81 843.94L1961.9 846.69ZM1969.44 833.012L1976.43 835.308L1973.45 844.39L1966.46 842.094L1969.44 833.012Z" fill="#E1E7F4"/>
<path d="M1969.85 827.129L1979.59 830.329C1980.35 830.579 1981.17 830.165 1981.42 829.406L1984.1 821.233C1984.35 820.473 1983.94 819.656 1983.18 819.406L1973.44 816.207C1972.68 815.957 1971.87 816.37 1971.62 817.13L1968.93 825.303C1968.68 826.062 1969.09 826.88 1969.85 827.129ZM1973.91 819.408L1980.9 821.704L1979.12 827.128L1972.13 824.831L1973.91 819.408Z" fill="#E1E7F4"/>
<path d="M1727.79 121.454C1722.5 123.909 1720.19 130.213 1722.64 135.505C1722.98 136.231 1723.84 136.546 1724.56 136.209C1725.29 135.873 1725.6 135.013 1725.27 134.288C1723.49 130.442 1725.16 125.863 1729.01 124.08C1729.73 123.744 1730.05 122.884 1729.71 122.158C1729.38 121.433 1728.51 121.118 1727.79 121.454Z" fill="#E1E7F4"/>
<path d="M1748.48 131.405C1748.54 128.956 1748.04 126.508 1746.98 124.22C1745.15 120.285 1741.9 117.296 1737.83 115.804C1733.76 114.311 1729.34 114.495 1725.41 116.32C1721.47 118.145 1718.48 121.394 1716.99 125.467C1715.5 129.54 1715.68 133.951 1717.51 137.887C1719.33 141.822 1722.58 144.811 1726.66 146.304C1730.73 147.796 1735.14 147.613 1739.08 145.787C1743.01 143.962 1746 140.714 1747.49 136.64C1747.77 135.891 1747.98 135.13 1748.14 134.363L1760.35 138.833C1760.93 139.047 1761.39 139.474 1761.66 140.038C1761.92 140.601 1761.94 141.232 1761.73 141.816L1761.7 141.886C1761.26 143.09 1759.92 143.71 1758.72 143.269L1750.62 140.302C1749.87 140.028 1749.04 140.413 1748.77 141.164C1748.49 141.914 1748.88 142.745 1749.63 143.02L1757.73 145.987C1759.08 146.482 1760.5 146.381 1761.71 145.819C1762.93 145.257 1763.93 144.232 1764.42 142.881L1764.45 142.811C1764.93 141.502 1764.87 140.085 1764.28 138.82C1763.69 137.555 1762.65 136.595 1761.34 136.115L1748.48 131.405ZM1744.77 135.644C1743.55 138.992 1741.09 141.662 1737.86 143.161C1734.62 144.661 1731 144.812 1727.65 143.586C1724.3 142.36 1721.63 139.903 1720.13 136.669C1718.63 133.435 1718.48 129.81 1719.71 126.463C1720.94 123.115 1723.39 120.446 1726.63 118.946C1729.86 117.446 1733.49 117.295 1736.83 118.522C1740.18 119.748 1742.85 122.204 1744.35 125.438C1745.85 128.673 1746 132.297 1744.77 135.644Z" fill="#E1E7F4"/>
<path d="M1750.7 73.7675L1709.23 92.9985C1708.5 93.3348 1708.19 94.1951 1708.53 94.9203L1718.57 116.583C1718.91 117.308 1719.77 117.623 1720.49 117.287C1721.22 116.951 1721.53 116.09 1721.2 115.365L1711.76 95.0154L1750.6 77.0022L1768.61 115.842L1750.34 124.315C1749.62 124.652 1749.3 125.512 1749.64 126.237C1749.98 126.963 1750.84 127.278 1751.56 126.941L1771.14 117.859C1771.87 117.523 1772.18 116.662 1771.85 115.937L1752.62 74.4715C1752.28 73.7463 1751.42 73.4312 1750.7 73.7675Z" fill="#E1E7F4"/>
<path d="M1723.43 93.5922L1717.44 96.3696C1716.72 96.7059 1716.4 97.5662 1716.74 98.2914L1719.51 104.28C1719.85 105.005 1720.71 105.32 1721.44 104.984L1726.11 102.815L1730.74 112.801C1731.08 113.526 1731.94 113.841 1732.66 113.504L1743.96 108.265C1744.69 107.928 1745 107.068 1744.67 106.343L1739.43 95.045C1739.09 94.3198 1738.23 94.0047 1737.5 94.341L1727.52 98.9719L1725.35 94.2962C1725.02 93.571 1724.15 93.256 1723.43 93.5922ZM1719.97 98.3866L1723.33 96.827L1724.89 100.19L1721.53 101.749L1719.97 98.3866ZM1741.43 106.248L1732.76 110.27L1728.74 101.598L1737.41 97.5758L1741.43 106.248Z" fill="#E1E7F4"/>
<path d="M1749.44 111.042L1745.5 112.869C1744.78 113.205 1744.46 114.065 1744.8 114.79L1747.23 120.042C1747.57 120.767 1748.43 121.082 1749.15 120.746L1754.41 118.31C1755.13 117.974 1755.45 117.114 1755.11 116.389L1753.28 112.45L1761.27 108.746C1761.99 108.41 1762.31 107.55 1761.97 106.824L1756.73 95.5265C1756.4 94.8013 1755.54 94.4862 1754.81 94.8225L1745.51 99.1352C1744.79 99.4715 1744.47 100.332 1744.81 101.057L1749.44 111.042ZM1751.87 116.294L1749.25 117.511L1748.03 114.886L1750.66 113.668L1751.87 116.294ZM1748.04 101.152L1754.72 98.0572L1758.74 106.729L1752.06 109.824L1748.04 101.152Z" fill="#E1E7F4"/>
<path d="M1744.32 96.5752L1753.62 92.2625C1754.35 91.9262 1754.66 91.0659 1754.33 90.3407L1750.71 82.5363C1750.37 81.8111 1749.51 81.496 1748.79 81.8323L1739.49 86.145C1738.76 86.4813 1738.45 87.3416 1738.78 88.0668L1742.4 95.8712C1742.74 96.5964 1743.6 96.9115 1744.32 96.5752ZM1742.02 88.1619L1748.69 85.067L1751.09 90.2456L1744.42 93.3405L1742.02 88.1619Z" fill="#E1E7F4"/>
<path d="M668.88 300.295C663.587 302.75 661.278 309.053 663.733 314.346C664.07 315.072 664.93 315.387 665.655 315.05C666.38 314.714 666.695 313.854 666.359 313.128C664.576 309.283 666.253 304.704 670.098 302.921C670.823 302.585 671.139 301.724 670.802 300.999C670.466 300.274 669.606 299.959 668.88 300.295Z" fill="#E1E7F4"/>
<path d="M689.574 310.246C689.629 307.797 689.127 305.348 688.066 303.061C686.241 299.126 682.992 296.137 678.919 294.644C674.846 293.152 670.435 293.336 666.499 295.161C662.564 296.986 659.575 300.235 658.082 304.308C656.59 308.381 656.774 312.792 658.599 316.728C660.424 320.663 663.673 323.652 667.746 325.145C671.819 326.637 676.23 326.453 680.166 324.628C684.101 322.803 687.09 319.554 688.583 315.481C688.857 314.732 689.074 313.971 689.235 313.204L701.437 317.674C702.02 317.887 702.485 318.315 702.746 318.879C703.007 319.442 703.033 320.073 702.819 320.657L702.793 320.727C702.353 321.931 701.015 322.551 699.812 322.11L691.713 319.143C690.962 318.869 690.131 319.254 689.856 320.004C689.581 320.755 689.967 321.586 690.717 321.861L698.816 324.828C700.167 325.323 701.593 325.222 702.805 324.66C704.018 324.097 705.017 323.073 705.512 321.722L705.537 321.651C706.017 320.343 705.958 318.925 705.372 317.661C704.785 316.396 703.741 315.436 702.432 314.956L689.574 310.246ZM685.865 314.485C684.638 317.833 682.182 320.502 678.948 322.002C675.714 323.502 672.089 323.653 668.742 322.427C665.394 321.2 662.725 318.744 661.225 315.51C659.725 312.276 659.574 308.651 660.8 305.304C662.027 301.956 664.483 299.287 667.717 297.787C670.951 296.287 674.576 296.136 677.923 297.362C681.271 298.589 683.94 301.045 685.44 304.279C686.94 307.513 687.091 311.138 685.865 314.485Z" fill="#E1E7F4"/>
<path d="M691.786 252.608L650.32 271.839C649.595 272.176 649.28 273.036 649.616 273.761L659.663 295.424C659.999 296.149 660.86 296.464 661.585 296.128C662.31 295.791 662.625 294.931 662.289 294.206L652.851 273.856L691.691 255.843L709.704 294.683L691.434 303.156C690.709 303.493 690.393 304.353 690.73 305.078C691.066 305.803 691.926 306.118 692.652 305.782L712.235 296.7C712.96 296.363 713.275 295.503 712.939 294.778L693.708 253.312C693.371 252.587 692.511 252.272 691.786 252.608Z" fill="#E1E7F4"/>
<path d="M664.52 272.433L658.531 275.21C657.806 275.547 657.491 276.407 657.827 277.132L660.605 283.121C660.941 283.846 661.801 284.161 662.526 283.825L667.202 281.656L671.833 291.641C672.169 292.367 673.03 292.682 673.755 292.345L685.053 287.106C685.778 286.769 686.093 285.909 685.757 285.184L680.517 273.886C680.18 273.161 679.32 272.846 678.595 273.182L668.61 277.813L666.442 273.137C666.105 272.412 665.245 272.097 664.52 272.433ZM661.062 277.227L664.424 275.668L665.984 279.031L662.621 280.59L661.062 277.227ZM682.522 285.089L673.85 289.111L669.828 280.439L678.5 276.417L682.522 285.089Z" fill="#E1E7F4"/>
<path d="M690.529 289.883L686.59 291.71C685.865 292.046 685.55 292.906 685.886 293.631L688.322 298.883C688.658 299.608 689.519 299.923 690.244 299.587L695.495 297.151C696.22 296.815 696.536 295.955 696.199 295.23L694.373 291.291L702.359 287.587C703.084 287.251 703.399 286.39 703.063 285.665L697.823 274.367C697.487 273.642 696.626 273.327 695.901 273.663L686.602 277.976C685.877 278.312 685.562 279.173 685.898 279.898L690.529 289.883ZM692.965 295.134L690.339 296.352L689.121 293.726L691.747 292.509L692.965 295.134ZM689.133 279.993L695.806 276.898L699.828 285.57L693.155 288.665L689.133 279.993Z" fill="#E1E7F4"/>
<path d="M685.415 275.416L694.714 271.103C695.439 270.767 695.754 269.907 695.418 269.182L691.798 261.377C691.462 260.652 690.602 260.337 689.877 260.673L680.578 264.986C679.852 265.322 679.537 266.182 679.874 266.908L683.493 274.712C683.829 275.437 684.69 275.752 685.415 275.416ZM683.108 267.003L689.781 263.908L692.183 269.086L685.51 272.181L683.108 267.003Z" fill="#E1E7F4"/>
<path d="M1249.54 38.6745L1243.23 35.1968C1243.06 35.0958 1242.87 35.0305 1242.68 35.005C1242.49 34.9795 1242.29 34.9944 1242.1 35.0487C1241.91 35.103 1241.74 35.1956 1241.59 35.3205C1241.44 35.4455 1241.32 35.6001 1241.23 35.7747L1239.87 38.3299C1239.78 38.4922 1239.72 38.6726 1239.69 38.8599C1239.67 39.0471 1239.68 39.2373 1239.74 39.4186C1239.79 39.5999 1239.88 39.7685 1240 39.914C1240.12 40.0595 1240.27 40.1788 1240.43 40.2645L1249.32 45.0505C1249.65 45.2396 1250.01 45.3605 1250.39 45.4059C1250.76 45.4513 1251.15 45.4203 1251.51 45.3147C1251.87 45.2106 1252.21 45.0338 1252.5 44.7951C1252.79 44.5564 1253.03 44.2608 1253.2 43.9264L1263.18 25.7179C1263.28 25.5518 1263.35 25.3656 1263.38 25.1714C1263.41 24.9772 1263.39 24.7795 1263.34 24.5912C1263.28 24.4029 1263.19 24.2282 1263.06 24.0786C1262.94 23.9291 1262.78 23.808 1262.6 23.7234L1260.11 22.3493C1259.94 22.253 1259.76 22.1911 1259.57 22.1674C1259.39 22.1437 1259.19 22.1586 1259.01 22.2114C1258.83 22.2642 1258.66 22.3536 1258.51 22.4742C1258.37 22.5948 1258.25 22.7441 1258.16 22.9128L1249.54 38.6745Z" fill="#E1E7F4"/>
<path d="M1272.41 35.886C1272.12 32.8978 1271.27 29.9895 1269.92 27.3095L1273.38 22.091C1273.95 21.2415 1274.2 20.224 1274.1 19.209C1274.01 18.1941 1273.56 17.2434 1272.85 16.5165L1269.84 13.6041C1269.29 13.0924 1268.62 12.7348 1267.89 12.5672C1267.15 12.3997 1266.39 12.4282 1265.67 12.6498C1265.19 12.7821 1264.74 13.0228 1264.36 13.3535L1259.19 17.1238C1256.48 15.8584 1253.55 15.1284 1250.56 14.9739L1247.86 9.37906C1247.4 8.51413 1246.64 7.845 1245.73 7.49469C1244.81 7.14437 1243.8 7.13643 1242.88 7.47231L1238.89 8.62817C1237.92 8.82242 1237.06 9.36627 1236.47 10.1554C1235.89 10.9446 1235.61 11.9235 1235.7 12.9044L1236.37 18.9775C1233.88 20.6868 1231.76 22.8827 1230.14 25.433L1223.65 25.0436C1223.15 25.028 1222.65 25.0633 1222.16 25.149C1221.44 25.3536 1220.79 25.7403 1220.26 26.2719C1219.73 26.8034 1219.35 27.4619 1219.15 28.1838L1218.17 32.2521C1217.93 33.2496 1218.05 34.3002 1218.51 35.2157C1218.98 36.1313 1219.75 36.8519 1220.7 37.2487L1226.41 39.8087C1226.54 41.3019 1226.82 42.7777 1227.26 44.2125C1227.65 45.658 1228.2 47.0568 1228.9 48.3852L1225.45 53.6536C1224.89 54.503 1224.63 55.5206 1224.73 56.5356C1224.83 57.5505 1225.27 58.5012 1225.99 59.228L1228.99 62.1405C1229.54 62.6522 1230.22 63.0098 1230.95 63.1774C1231.68 63.3449 1232.44 63.3164 1233.16 63.0948C1233.64 62.9624 1234.09 62.7218 1234.47 62.391L1239.65 58.6208C1242.36 59.8862 1245.28 60.6162 1248.27 60.7707L1251 66.4653C1251.44 67.3766 1252.2 68.0995 1253.13 68.5039C1254.06 68.9083 1255.1 68.9676 1256.07 68.6712L1260.06 67.5153C1261.04 67.2245 1261.89 66.5957 1262.45 65.7401C1263.02 64.8845 1263.26 63.8573 1263.14 62.8401L1262.4 56.5676C1265 54.7577 1267.2 52.4282 1268.85 49.7263L1274.84 50.2601C1275.37 50.266 1275.9 50.2211 1276.42 50.1259C1277.15 49.9212 1277.8 49.5345 1278.33 49.003C1278.86 48.4714 1279.24 47.813 1279.44 47.0911L1280.38 43.2511C1280.69 42.3221 1280.63 41.3101 1280.21 40.4248C1279.79 39.5395 1279.05 38.8488 1278.14 38.4959L1272.41 35.886ZM1266.33 27.5512L1263.11 33.4135L1263.33 34.1913C1264.23 37.2419 1264.09 40.5034 1262.93 43.466C1261.78 46.4285 1259.68 48.925 1256.95 50.5649C1254.23 52.2048 1251.04 52.8958 1247.88 52.5297C1244.72 52.1636 1241.77 50.7611 1239.5 48.5415C1237.22 46.322 1235.74 43.4105 1235.3 40.2625C1234.85 37.1145 1235.46 33.9073 1237.03 31.1427C1238.6 28.3781 1241.04 26.2119 1243.98 24.9828C1246.91 23.7537 1250.17 23.5311 1253.24 24.3498L1254.98 21.2085C1255.29 20.6234 1255.72 20.1071 1256.24 19.6896C1256.76 19.2722 1257.36 18.9618 1258 18.7766C1258.64 18.5914 1259.3 18.535 1259.97 18.6106C1260.63 18.6863 1261.27 18.8926 1261.85 19.2175L1264.42 20.6341C1265.04 20.9762 1265.58 21.4443 1266.01 22.0086C1266.44 22.5729 1266.75 23.2208 1266.92 23.9107C1267.21 25.1543 1267 26.4629 1266.33 27.5512Z" fill="#E1E7F4"/>
<path d="M347.632 962.676L341.316 959.198C341.149 959.097 340.963 959.031 340.77 959.006C340.576 958.981 340.38 958.995 340.192 959.05C340.005 959.104 339.831 959.197 339.681 959.322C339.531 959.446 339.409 959.601 339.322 959.776L337.965 962.331C337.869 962.493 337.807 962.674 337.783 962.861C337.759 963.048 337.774 963.238 337.826 963.42C337.879 963.601 337.968 963.769 338.088 963.915C338.209 964.06 338.357 964.18 338.526 964.266L347.414 969.051C347.742 969.241 348.104 969.361 348.48 969.407C348.855 969.452 349.236 969.421 349.599 969.316C349.961 969.212 350.298 969.035 350.589 968.796C350.881 968.557 351.12 968.262 351.294 967.927L361.27 949.719C361.375 949.553 361.443 949.367 361.47 949.172C361.497 948.978 361.483 948.78 361.428 948.592C361.374 948.404 361.28 948.229 361.153 948.08C361.026 947.93 360.869 947.809 360.692 947.724L358.197 946.35C358.034 946.254 357.853 946.192 357.664 946.168C357.476 946.145 357.285 946.16 357.103 946.212C356.921 946.265 356.752 946.355 356.605 946.475C356.459 946.596 356.339 946.745 356.253 946.914L347.632 962.676Z" fill="#E1E7F4"/>
<path d="M370.498 959.887C370.208 956.899 369.366 953.99 368.013 951.311L371.473 946.092C372.037 945.243 372.292 944.225 372.194 943.21C372.097 942.195 371.654 941.244 370.939 940.518L367.933 937.605C367.383 937.093 366.709 936.736 365.977 936.568C365.245 936.401 364.482 936.429 363.765 936.651C363.281 936.783 362.833 937.024 362.455 937.355L357.278 941.125C354.569 939.859 351.641 939.129 348.656 938.975L345.954 933.38C345.492 932.515 344.733 931.846 343.817 931.496C342.902 931.145 341.89 931.137 340.969 931.473L336.98 932.629C336.014 932.823 335.155 933.367 334.565 934.156C333.976 934.946 333.699 935.924 333.787 936.905L334.466 942.978C331.973 944.688 329.851 946.884 328.229 949.434L321.738 949.045C321.242 949.029 320.745 949.064 320.255 949.15C319.535 949.355 318.879 949.741 318.352 950.273C317.824 950.804 317.442 951.463 317.243 952.185L316.26 956.253C316.019 957.251 316.142 958.301 316.605 959.217C317.068 960.132 317.842 960.853 318.789 961.25L324.503 963.81C324.631 965.303 324.914 966.779 325.347 968.214C325.744 969.659 326.294 971.058 326.988 972.386L323.542 977.655C322.978 978.504 322.724 979.522 322.821 980.537C322.918 981.552 323.361 982.502 324.076 983.229L327.082 986.142C327.632 986.653 328.306 987.011 329.038 987.178C329.77 987.346 330.533 987.317 331.25 987.096C331.735 986.963 332.182 986.723 332.56 986.392L337.737 982.622C340.446 983.887 343.374 984.617 346.359 984.772L349.091 990.466C349.535 991.378 350.29 992.1 351.219 992.505C352.149 992.909 353.192 992.969 354.162 992.672L358.151 991.516C359.133 991.225 359.981 990.597 360.544 989.741C361.107 988.885 361.349 987.858 361.228 986.841L360.492 980.569C363.091 978.759 365.287 976.429 366.941 973.727L372.933 974.261C373.464 974.267 373.994 974.222 374.516 974.127C375.236 973.922 375.892 973.535 376.419 973.004C376.947 972.472 377.329 971.814 377.528 971.092L378.469 967.252C378.778 966.323 378.717 965.311 378.299 964.426C377.882 963.54 377.139 962.85 376.226 962.497L370.498 959.887ZM364.418 951.552L361.198 957.414L361.424 958.192C362.32 961.243 362.18 964.504 361.026 967.467C359.871 970.429 357.768 972.926 355.044 974.566C352.32 976.206 349.129 976.897 345.971 976.531C342.812 976.165 339.864 974.762 337.588 972.543C335.311 970.323 333.835 967.412 333.389 964.263C332.942 961.115 333.552 957.908 335.123 955.144C336.693 952.379 339.135 950.213 342.068 948.984C345 947.755 348.257 947.532 351.329 948.351L353.067 945.209C353.385 944.624 353.815 944.108 354.333 943.691C354.851 943.273 355.448 942.963 356.087 942.778C356.726 942.592 357.396 942.536 358.057 942.612C358.718 942.687 359.358 942.894 359.939 943.218L362.511 944.635C363.132 944.977 363.675 945.445 364.105 946.01C364.535 946.574 364.842 947.222 365.006 947.912C365.298 949.155 365.087 950.464 364.418 951.552Z" fill="#E1E7F4"/>
<path d="M1483.09 861.512L1476.77 858.035C1476.61 857.934 1476.42 857.868 1476.23 857.843C1476.03 857.817 1475.84 857.832 1475.65 857.887C1475.46 857.941 1475.29 858.033 1475.14 858.158C1474.99 858.283 1474.87 858.438 1474.78 858.613L1473.42 861.168C1473.32 861.33 1473.26 861.51 1473.24 861.698C1473.22 861.885 1473.23 862.075 1473.28 862.256C1473.34 862.438 1473.42 862.606 1473.54 862.752C1473.66 862.897 1473.81 863.017 1473.98 863.102L1482.87 867.888C1483.2 868.077 1483.56 868.198 1483.94 868.244C1484.31 868.289 1484.69 868.258 1485.06 868.153C1485.42 868.048 1485.75 867.872 1486.05 867.633C1486.34 867.394 1486.58 867.099 1486.75 866.764L1496.73 848.556C1496.83 848.39 1496.9 848.203 1496.93 848.009C1496.95 847.815 1496.94 847.617 1496.88 847.429C1496.83 847.241 1496.74 847.066 1496.61 846.917C1496.48 846.767 1496.33 846.646 1496.15 846.561L1493.65 845.187C1493.49 845.091 1493.31 845.029 1493.12 845.005C1492.93 844.982 1492.74 844.997 1492.56 845.049C1492.38 845.102 1492.21 845.192 1492.06 845.312C1491.92 845.433 1491.8 845.582 1491.71 845.751L1483.09 861.512Z" fill="#E1E7F4"/>
<path d="M1505.95 858.724C1505.66 855.736 1504.82 852.827 1503.47 850.147L1506.93 844.929C1507.49 844.079 1507.75 843.062 1507.65 842.047C1507.55 841.032 1507.11 840.081 1506.39 839.354L1503.39 836.442C1502.84 835.93 1502.16 835.573 1501.43 835.405C1500.7 835.238 1499.94 835.266 1499.22 835.488C1498.74 835.62 1498.29 835.861 1497.91 836.191L1492.73 839.962C1490.03 838.696 1487.1 837.966 1484.11 837.812L1481.41 832.217C1480.95 831.352 1480.19 830.683 1479.27 830.333C1478.36 829.982 1477.35 829.974 1476.43 830.31L1472.44 831.466C1471.47 831.66 1470.61 832.204 1470.02 832.993C1469.43 833.782 1469.15 834.761 1469.24 835.742L1469.92 841.815C1467.43 843.525 1465.31 845.721 1463.68 848.271L1457.19 847.882C1456.7 847.866 1456.2 847.901 1455.71 847.987C1454.99 848.192 1454.34 848.578 1453.81 849.11C1453.28 849.641 1452.9 850.3 1452.7 851.022L1451.72 855.09C1451.48 856.088 1451.6 857.138 1452.06 858.054C1452.52 858.969 1453.3 859.69 1454.24 860.087L1459.96 862.647C1460.09 864.14 1460.37 865.616 1460.8 867.05C1461.2 868.496 1461.75 869.895 1462.44 871.223L1459 876.491C1458.43 877.341 1458.18 878.358 1458.28 879.373C1458.37 880.388 1458.82 881.339 1459.53 882.066L1462.54 884.978C1463.09 885.49 1463.76 885.848 1464.49 886.015C1465.23 886.183 1465.99 886.154 1466.71 885.933C1467.19 885.8 1467.64 885.56 1468.02 885.229L1473.19 881.459C1475.9 882.724 1478.83 883.454 1481.82 883.609L1484.55 889.303C1484.99 890.214 1485.75 890.937 1486.68 891.342C1487.6 891.746 1488.65 891.805 1489.62 891.509L1493.61 890.353C1494.59 890.062 1495.44 889.434 1496 888.578C1496.56 887.722 1496.81 886.695 1496.68 885.678L1495.95 879.406C1498.55 877.596 1500.74 875.266 1502.4 872.564L1508.39 873.098C1508.92 873.104 1509.45 873.059 1509.97 872.964C1510.69 872.759 1511.35 872.372 1511.88 871.841C1512.4 871.309 1512.78 870.651 1512.98 869.929L1513.93 866.089C1514.23 865.16 1514.17 864.148 1513.76 863.263C1513.34 862.377 1512.6 861.687 1511.68 861.334L1505.95 858.724ZM1499.87 850.389L1496.65 856.251L1496.88 857.029C1497.78 860.08 1497.64 863.341 1496.48 866.304C1495.33 869.266 1493.22 871.763 1490.5 873.403C1487.78 875.043 1484.59 875.734 1481.43 875.368C1478.27 875.001 1475.32 873.599 1473.04 871.379C1470.77 869.16 1469.29 866.248 1468.84 863.1C1468.4 859.952 1469.01 856.745 1470.58 853.981C1472.15 851.216 1474.59 849.05 1477.52 847.821C1480.46 846.592 1483.71 846.369 1486.79 847.188L1488.52 844.046C1488.84 843.461 1489.27 842.945 1489.79 842.528C1490.31 842.11 1490.9 841.8 1491.54 841.614C1492.18 841.429 1492.85 841.373 1493.51 841.449C1494.17 841.524 1494.81 841.731 1495.39 842.055L1497.97 843.472C1498.59 843.814 1499.13 844.282 1499.56 844.847C1499.99 845.411 1500.3 846.059 1500.46 846.749C1500.75 847.992 1500.54 849.301 1499.87 850.389Z" fill="#E1E7F4"/>
<path d="M26.8958 97.5113L72.0666 71.1174C73.5525 70.2491 74.6326 68.8262 75.0693 67.1616C75.5061 65.497 75.2637 63.727 74.3955 62.2411L73.8942 61.3832C72.7172 59.3902 70.8009 57.9424 68.562 57.355C66.3231 56.7676 63.9429 57.088 61.939 58.2465L14.002 86.2568C12.0089 87.4337 10.5612 89.3501 9.97377 91.589C9.38634 93.8279 9.70674 96.2081 10.8653 98.212L38.8756 146.149C40.0525 148.142 41.9689 149.59 44.2077 150.177C46.4466 150.765 48.8269 150.444 50.8307 149.286L98.7677 121.275C100.761 120.098 102.209 118.182 102.796 115.943C103.383 113.704 103.063 111.324 101.904 109.32L82.7842 76.5977" stroke="#E1E7F4" stroke-width="5" stroke-linecap="round" stroke-linejoin="round"/>
<path d="M43.8134 78.2317L38.561 81.3008" stroke="#E1E7F4" stroke-width="5" stroke-linecap="round" stroke-linejoin="round"/>
<path d="M54.318 72.0936L50.8164 74.1396" stroke="#E1E7F4" stroke-width="5" stroke-linecap="round" stroke-linejoin="round"/>
<path d="M66.5737 64.9329L61.3213 68.002" stroke="#E1E7F4" stroke-width="5" stroke-linecap="round" stroke-linejoin="round"/>
<path d="M23.1372 103.137C24.1041 102.572 24.43 101.33 23.865 100.363C23.3 99.396 22.0581 99.0702 21.0911 99.6352C20.1242 100.2 19.7984 101.442 20.3634 102.409C20.9284 103.376 22.1702 103.702 23.1372 103.137Z" fill="#E1E7F4"/>
<path d="M58.4046 93.6375L64.16 129.613" stroke="#E1E7F4" stroke-width="5" stroke-linecap="round" stroke-linejoin="round"/>
<path d="M69.9382 96.5753L81.3941 99.581L78.1962 111.713" stroke="#E1E7F4" stroke-width="5" stroke-linecap="round" stroke-linejoin="round"/>
<path d="M44.2977 111.698L41.2817 123.136L53.4311 126.324" stroke="#E1E7F4" stroke-width="5" stroke-linecap="round" stroke-linejoin="round"/>
<path d="M1157.44 267.674L1202.61 241.28C1204.1 240.412 1205.18 238.989 1205.61 237.325C1206.05 235.66 1205.81 233.89 1204.94 232.404L1204.44 231.546C1203.26 229.553 1201.34 228.106 1199.11 227.518C1196.87 226.931 1194.49 227.251 1192.48 228.41L1144.55 256.42C1142.55 257.597 1141.11 259.513 1140.52 261.752C1139.93 263.991 1140.25 266.371 1141.41 268.375L1169.42 316.312C1170.6 318.305 1172.51 319.753 1174.75 320.34C1176.99 320.928 1179.37 320.607 1181.37 319.449L1229.31 291.439C1231.3 290.262 1232.75 288.345 1233.34 286.106C1233.93 283.867 1233.61 281.487 1232.45 279.483L1213.33 246.761" stroke="#E1E7F4" stroke-width="5" stroke-linecap="round" stroke-linejoin="round"/>
<path d="M1174.36 248.395L1169.1 251.464" stroke="#E1E7F4" stroke-width="5" stroke-linecap="round" stroke-linejoin="round"/>
<path d="M1184.86 242.257L1181.36 244.303" stroke="#E1E7F4" stroke-width="5" stroke-linecap="round" stroke-linejoin="round"/>
<path d="M1197.12 235.096L1191.87 238.165" stroke="#E1E7F4" stroke-width="5" stroke-linecap="round" stroke-linejoin="round"/>
<path d="M1153.68 273.3C1154.65 272.735 1154.97 271.493 1154.41 270.526C1153.84 269.559 1152.6 269.233 1151.63 269.798C1150.67 270.363 1150.34 271.605 1150.91 272.572C1151.47 273.539 1152.71 273.865 1153.68 273.3Z" fill="#E1E7F4"/>
<path d="M1188.95 263.801L1194.7 299.776" stroke="#E1E7F4" stroke-width="5" stroke-linecap="round" stroke-linejoin="round"/>
<path d="M1200.48 266.738L1211.94 269.744L1208.74 281.876" stroke="#E1E7F4" stroke-width="5" stroke-linecap="round" stroke-linejoin="round"/>
<path d="M1174.84 281.861L1171.83 293.299L1183.98 296.487" stroke="#E1E7F4" stroke-width="5" stroke-linecap="round" stroke-linejoin="round"/>
<path d="M2028.47 169.809L2034.15 165.502L2036.31 168.353L2002.2 194.195L2000.04 191.344L2005.72 187.037L2002.09 176.329L2019.15 163.408L2028.47 169.809ZM2005.75 74.8367L2051.1 134.715L1965.81 199.32L1920.46 139.441L2005.75 74.8367ZM2004.38 84.8464L1930.46 140.837L1967.18 189.31L2041.1 133.319L2004.38 84.8464ZM2036.1 132.621L1967.86 184.305L1935.46 141.535L2003.7 89.8512L2036.1 132.621ZM1952.63 146.48L1975.38 129.252L1973.22 126.401L1950.47 143.629L1952.63 146.48ZM1979.12 157.825L1967.75 166.439L1969.91 169.291L1981.28 160.677L1979.12 157.825ZM1997.55 134.895L1971.96 154.276L1974.12 157.127L1999.71 137.746L1997.55 134.895ZM1993.23 129.192L1967.64 148.573L1969.8 151.425L1995.39 132.043L1993.23 129.192ZM1991.75 121.336L1963.32 142.871L1965.48 145.722L1993.91 124.187L1991.75 121.336Z" fill="#E1E7F4"/>
</svg>
